<!-- icon666.com - MILLIONS vector ICONS FREE --><svg viewBox="0 0 512 512" xmlns="http://www.w3.org/2000/svg"><g id="Layer_2" data-name="Layer 2"><g id="_11" data-name="11"><path id="background" d="m256 9a247.06 247.06 0 0 1 96.14 474.59 247.06 247.06 0 0 1 -192.28-455.18 245.37 245.37 0 0 1 96.14-19.41m0-9c-141.38 0-256 114.62-256 256s114.62 256 256 256 256-114.62 256-256-114.62-256-256-256z"></path><path d="m205.29 179.44v116.25a9 9 0 0 0 9 9h22.37v27.87h-104.15v-27.87h26.17a9 9 0 0 0 9-9v-79.38a9 9 0 0 0 -9-9h-21.42v-27.87h68m.45-9h-68.89c-3 0-5.2.68-6.54 2s-2 3.53-2 6.54v28.76q0 4.52 2 6.53t6.54 2h21.86v79.38h-26.62q-4.51 0-6.53 2t-2 6.53v28.82q0 4.51 2 6.54c1.34 1.34 3.52 2 6.53 2h105.05c3 0 5.18-.68 6.53-2s2-3.53 2-6.54v-28.76q0-4.5-2-6.53t-6.53-2h-22.82v-116.71q0-4.51-2-6.54c-1.35-1.34-3.53-2-6.53-2z"></path><path d="m348.12 179.44v116.25a9 9 0 0 0 9 9h22.37v27.87h-104.15v-27.87h26.17a9 9 0 0 0 9-9v-79.38a9 9 0 0 0 -9-9h-21.42v-27.87h68m.45-9h-68.89c-3 0-5.19.68-6.54 2s-2 3.53-2 6.54v28.76q0 4.52 2 6.53c1.35 1.35 3.52 2 6.54 2h21.86v79.38h-26.62q-4.51 0-6.53 2t-2 6.53v28.82q0 4.51 2 6.54c1.34 1.34 3.52 2 6.53 2h105.05c3 0 5.18-.68 6.53-2s2-3.53 2-6.54v-28.76q0-4.5-2-6.53c-1.35-1.35-3.52-2-6.53-2h-22.82v-116.71q0-4.51-2-6.54c-1.35-1.34-3.53-2-6.53-2z"></path></g></g></svg>