<!-- icon666.com - MILLIONS vector ICONS FREE --><svg viewBox="0 0 512 512" xmlns="http://www.w3.org/2000/svg"><g id="Layer_2" data-name="Layer 2"><g id="_7" data-name="7"><path id="background" d="m256 9a247.06 247.06 0 0 1 96.14 474.59 247.06 247.06 0 0 1 -192.28-455.18 245.37 245.37 0 0 1 96.14-19.41m0-9c-141.38 0-256 114.62-256 256s114.62 256 256 256 256-114.62 256-256-114.62-256-256-256z"></path><path d="m314.08 175.06v63.2a64.55 64.55 0 0 1 -2 17.49 27.13 27.13 0 0 1 -5.28 10.36 28.91 28.91 0 0 1 -9.3 6.89 104.08 104.08 0 0 1 -16 6.07l-18.49 5.5a9 9 0 0 0 -6.43 8.63v43.71h-40.42v-45.18a64.63 64.63 0 0 1 2-17.5 27.23 27.23 0 0 1 5.28-10.35 29.09 29.09 0 0 1 9.28-6.92 104.29 104.29 0 0 1 15.87-6l20.12-5.46a9 9 0 0 0 6.64-8.69v-22.53a9 9 0 0 0 -9-9h-68.43v-30.22zm0-9h-116.17c-3.16 0-5.46.71-6.87 2.12s-2.12 3.71-2.12 6.87v30.23c0 3.17.7 5.46 2.12 6.87s3.71 2.13 6.87 2.13h68.46v22.48l-20.24 5.5a114.08 114.08 0 0 0 -17.36 6.62 37.77 37.77 0 0 0 -12.12 9.12 35.71 35.71 0 0 0 -7.12 13.74 72.78 72.78 0 0 0 -2.37 20v45.26c0 3.17.7 5.46 2.12 6.87s3.7 2.12 6.87 2.12h40.47c3.17 0 5.46-.7 6.88-2.12s2.12-3.7 2.12-6.87v-43.77l18.49-5.5a113 113 0 0 0 17.36-6.62 37.7 37.7 0 0 0 12.12-9.11 36 36 0 0 0 7.12-13.74 73.17 73.17 0 0 0 2.37-20v-63.21q0-4.74-2.12-6.87t-6.87-2.12z"></path></g></g></svg>