<!-- icon666.com - MILLIONS vector ICONS FREE --><svg viewBox="0 0 512 512" xmlns="http://www.w3.org/2000/svg"><g id="Layer_2" data-name="Layer 2"><g id="_9" data-name="9"><path id="background" d="m256 9a247.06 247.06 0 0 1 96.14 474.59 247.06 247.06 0 0 1 -192.28-455.18 245.37 245.37 0 0 1 96.14-19.41m0-9c-141.38 0-256 114.62-256 256s114.62 256 256 256 256-114.62 256-256-114.62-256-256-256z"></path><path d="m254.5 173.18c14.51 0 26.44 1.13 35.44 3.36 8.42 2.09 14.94 5 19.39 8.53a25.1 25.1 0 0 1 8.47 11.72 55.94 55.94 0 0 1 2.65 17.86v82c0 12.93-3.51 23-10.73 30.88-6.83 7.42-21.26 11.34-41.73 11.34h-57.46v-29.52h46.72c8.63 0 14.5-1.63 18.45-5.13 5.64-5 6.29-13.15 6.29-18.86v-5.5a9 9 0 0 0 -11.52-8.64 82 82 0 0 1 -12.47 2.46 133.72 133.72 0 0 1 -16.73.93c-25 0-35.64-4.91-40.17-9-6.42-5.84-9.54-14.66-9.54-26.94v-24a55.86 55.86 0 0 1 2.65-17.86 25.5 25.5 0 0 1 8.39-11.81c4.37-3.56 10.66-6.43 18.68-8.5 8.55-2.22 19.73-3.34 33.22-3.34m1.75 78.2c9.77 0 15.83-1.49 19.67-4.85a17.06 17.06 0 0 0 6.08-13.12v-14.74a17.35 17.35 0 0 0 -6.07-13.4c-3.84-3.35-9.9-4.85-19.67-4.85-10.25 0-16.28 1.45-20.17 4.85a17.35 17.35 0 0 0 -6.07 13.4v14.74a17.06 17.06 0 0 0 6.07 13.14c3.89 3.4 9.92 4.85 20.17 4.85m-1.75-87.2q-21.5 0-35.48 3.63t-22.11 10.24a34.47 34.47 0 0 0 -11.24 15.86 64.39 64.39 0 0 0 -3.12 20.74v24q0 22.23 12.49 33.6t46.22 11.37a142.19 142.19 0 0 0 17.86-1 89.47 89.47 0 0 0 13.87-2.76v5.5q0 9.24-3.25 12.11t-12.49 2.88h-46.73q-4.75 0-6.87 2.12t-2.13 6.87v29.48q0 4.76 2.13 6.87t6.87 2.13h57.47q35.24 0 48.35-14.24t13.11-37v-82a64.67 64.67 0 0 0 -3.12-20.74 34.11 34.11 0 0 0 -11.34-15.79q-8.23-6.62-22.86-10.24t-37.6-3.63zm1.75 78.2q-11.25 0-14.24-2.62a8.16 8.16 0 0 1 -3-6.37v-14.74a8.43 8.43 0 0 1 3-6.62q3-2.62 14.24-2.63 10.74 0 13.74 2.6a8.43 8.43 0 0 1 3 6.62v14.74a8.16 8.16 0 0 1 -3 6.37q-3 2.63-13.74 2.62z"></path></g></g></svg>