<svg width="18" height="18" viewBox="0 0 18 18" fill="none" xmlns="http://www.w3.org/2000/svg">
<path d="M11.7803 10.7197C11.4874 10.4268 11.0126 10.4268 10.7197 10.7197C10.4268 11.0126 10.4268 11.4874 10.7197 11.7803L11.7803 10.7197ZM15.2197 16.2803C15.5126 16.5732 15.9874 16.5732 16.2803 16.2803C16.5732 15.9874 16.5732 15.5126 16.2803 15.2197L15.2197 16.2803ZM7.5 12C5.01472 12 3 9.98528 3 7.5H1.5C1.5 10.8137 4.18629 13.5 7.5 13.5V12ZM3 7.5C3 5.01472 5.01472 3 7.5 3V1.5C4.18629 1.5 1.5 4.18629 1.5 7.5H3ZM7.5 3C9.98528 3 12 5.01472 12 7.5H13.5C13.5 4.18629 10.8137 1.5 7.5 1.5V3ZM12 7.5C12 9.98528 9.98528 12 7.5 12V13.5C10.8137 13.5 13.5 10.8137 13.5 7.5H12ZM10.7197 11.7803L15.2197 16.2803L16.2803 15.2197L11.7803 10.7197L10.7197 11.7803Z" fill="#777777"/>
</svg>
