<svg width="22" height="21" viewBox="0 0 22 21" fill="none" xmlns="http://www.w3.org/2000/svg">
<path d="M15.7109 5.66667C15.7109 3.08934 13.6215 1 11.0442 1C8.46689 1 6.37755 3.08934 6.37755 5.66667M20.8193 10.0138L19.7304 16.5471C19.5457 17.6554 19.4532 18.2095 19.1767 18.6254C18.9329 18.9919 18.5908 19.2821 18.1892 19.4623C17.7335 19.6667 17.172 19.6667 16.0484 19.6667H6.04031C4.91673 19.6667 4.35517 19.6667 3.89952 19.4623C3.49787 19.2821 3.15539 18.9919 2.91163 18.6254C2.63509 18.2095 2.54243 17.6554 2.35772 16.5471L1.26883 10.0138C1.01956 8.51816 0.894748 7.77031 1.11121 7.18752C1.30117 6.6761 1.66489 6.24745 2.13813 5.976C2.67741 5.66667 3.43489 5.66667 4.95112 5.66667H17.137C18.6532 5.66667 19.4117 5.66667 19.9509 5.976C20.4242 6.24745 20.7871 6.6761 20.977 7.18752C21.1935 7.77031 21.0686 8.51816 20.8193 10.0138Z" stroke="black" stroke-width="1.5" stroke-linecap="round" stroke-linejoin="round"/>
</svg>
